<svg width="750" height="743" viewBox="0 0 750 743" fill="none" xmlns="http://www.w3.org/2000/svg">
    <mask id="mask0_201_13" style="mask-type:alpha" maskUnits="userSpaceOnUse" x="0" y="0" width="750" height="743">
        <g clip-path="url(#clip0_201_13)">
        <path d="M739.665 143.228C734.011 136.534 728.072 130.092 722.116 123.649C705.909 106.134 690.088 88.2322 674.502 70.1797C656.567 49.3925 638.497 28.7059 620.68 7.83487C616.687 3.18753 612.308 0.670918 605.882 0.587031C600.396 0.519922 594.994 0.519922 589.507 0.620586C533.001 1.86211 476.445 3.00298 419.938 4.2445C373.28 5.2847 326.639 4.31161 279.981 3.1372C235.806 2.02989 191.631 1.61045 147.473 0.0333773C136.753 -0.352503 128.095 2.65065 120.445 11.7943C84.2729 54.8955 47.2787 97.292 9.21079 138.749C2.90249 145.644 0 153.513 0 162.606C0 174.955 0.167774 187.286 0.352325 199.634C1.72807 294.628 3.13737 389.588 4.56345 484.548C5.60365 554.51 6.62707 624.505 7.56661 694.5C7.63372 700.674 8.94235 706.395 11.5596 711.949C17.2472 723.945 27.9344 730.874 38.2189 738.155C39.4269 738.977 41.3563 738.944 42.9837 738.944C53.4025 739.044 63.838 739.111 74.2568 739.145C95.9499 739.212 117.626 738.793 139.286 739.799C169.183 741.141 199.114 742.836 228.995 741.796C276.19 740.168 323.401 741.007 351.335 740.789C475.773 741.477 580.901 741.997 685.994 742.752C697.722 742.819 708.895 741.057 719.885 737.299C724.465 735.756 728.374 733.407 731.427 729.783C740.353 719.129 745.487 706.915 745.638 692.957C746.158 641.886 746.611 590.866 747.014 539.796C748.02 416.012 748.909 292.195 750.017 168.411C750.117 158.345 745.772 150.443 739.665 143.212V143.228ZM157.64 61.1702C159.738 50.7514 164.402 46.4732 174.921 46.2383C213.325 45.4162 251.745 44.678 290.148 43.8895C317.596 43.3358 345.044 42.7151 370.898 42.1614C438.31 43.5372 504.161 45.0304 569.979 46.0538C579.525 46.188 586.085 52.2279 587.326 61.187C588.333 68.5355 588.87 75.9175 588.769 83.3164C586.873 206.781 584.978 330.263 583.182 453.728C583.082 460.271 582.461 466.244 576.874 470.723C574.424 472.686 572.009 474.146 568.737 473.861C567.11 473.693 565.465 473.827 563.804 473.827H180.978C167.22 473.827 161.768 468.559 161.566 454.516C160.157 361.217 158.848 267.918 157.489 174.653C157.036 145.007 156.6 115.378 156.214 85.7323C156.114 77.5282 156.013 69.2905 157.624 61.1534L157.64 61.1702ZM39.5108 638.078C39.5108 634.706 39.5443 632.004 39.4772 629.32C37.38 526.743 35.2325 424.166 33.1354 321.589C32.1287 274.142 31.3066 226.696 30.2664 179.25C30.1658 175.173 30.9879 172.002 33.7561 168.797C58.6538 139.94 83.8199 111.284 109.858 83.4338C110.899 82.3265 111.553 80.4978 113.969 80.8501C116.284 85.1619 116.62 89.9434 116.72 94.8424C119.136 224.599 121.586 354.305 124.069 484.011C124.136 488.222 123.683 492.014 121.552 495.839C95.5137 541.91 69.6598 588.031 43.7387 634.102C42.9837 635.444 42.6314 637.273 39.5275 638.061L39.5108 638.078ZM666.532 699.248C653.396 700.037 640.225 700.104 627.089 701.077C593.92 703.459 560.717 703.275 527.515 703.526C474.582 703.979 421.633 705.557 382.692 704.768C271.257 703.258 173.814 701.899 76.4043 700.59C70.4818 700.523 64.744 700.288 61.4053 694.316C58.1672 688.595 58.335 683.142 61.724 677.253C73.485 656.835 84.8936 636.182 96.4029 615.63C113.717 584.81 131.266 554.09 148.228 523.052C152.775 514.68 158.647 511.257 168.16 511.291C271.324 511.492 374.522 511.425 477.72 511.425C508.171 511.425 538.638 511.425 569.089 511.392C571.807 511.392 574.576 511.358 577.293 510.939C585.296 509.764 590.229 511.895 594.222 519.042C623.398 570.901 652.523 622.76 681.565 674.653C687.42 685.105 679.216 698.476 666.532 699.231V699.248ZM710.053 393.933C708.426 472.401 706.815 550.886 705.188 629.354C705.12 632.071 705.188 634.773 705.188 639.051C701.664 635.914 700.742 633.33 699.433 631.015C674.435 586.571 649.47 542.094 624.371 497.718C621.72 492.987 620.613 488.34 620.713 482.92C622.878 375.612 624.958 268.321 627.022 161.013C627.441 139.319 627.777 117.676 628.23 95.9833C628.33 90.7823 628.297 85.4974 630.948 80.7159C633.598 80.6488 634.538 82.9976 635.947 84.5076C661.298 111.536 685.659 139.437 709.936 167.405C713.459 171.482 714.767 175.475 714.616 180.709C712.989 251.778 711.513 322.831 710.036 393.933H710.053Z" fill="#4857A8"/>
        <path d="M378.901 324.911C363.264 343.802 347.93 362.325 332.595 380.847C329.525 384.555 326.455 388.263 323.384 391.954C321.539 394.185 319.425 395.963 316.304 394.839C313.502 393.833 313.234 391.299 312.764 388.716C297.547 304.594 282.28 220.472 266.996 136.367C266.475 133.464 265.116 130.444 268.321 128.23C271.626 125.948 274.361 127.827 277.096 129.639C313.2 153.564 349.322 177.471 385.444 201.379C420.224 224.414 454.986 247.45 489.766 270.485C490.538 270.989 491.343 271.425 492.098 271.945C494.514 273.673 497.567 275.216 496.98 278.773C496.376 282.414 493.591 284.645 490.303 286.004C488.625 286.692 486.763 286.944 484.984 287.347C460.64 293 436.313 298.638 411.969 304.325C410.241 304.728 408.328 304.694 406.55 306.339C406.902 308.486 408.496 310.197 409.687 312.043C419.821 327.864 430.021 343.668 440.138 359.506C441.615 361.805 443.091 364.187 444.047 366.737C446.749 373.868 444.165 381.317 437.89 385.394C431.615 389.471 423.663 388.85 418.277 383.582C416.348 381.686 414.804 379.32 413.328 377.022C403.379 361.62 393.497 346.168 383.548 330.75C382.34 328.871 381.468 326.689 378.918 324.894L378.901 324.911Z" fill="#4857A8"/>
        </g>
    </mask>
    <g mask="url(#mask0_201_13)">
    <rect width="749.95" height="743.239" fill="#E8F2FC"/>
    </g>
    <defs>
        <clipPath id="clip0_201_13">
        <rect width="750" height="742.769" fill="white"/>
        </clipPath>
    </defs>
</svg>